<svg xmlns="http://www.w3.org/2000/svg" viewBox="0 0 207.81 260.81"><defs><style>.cls-1{fill:#b4c9e9;}.cls-2{fill:#2b4c9a;}.cls-3{fill:#264092;}.cls-4{fill:#546cb1;}.cls-5{fill:#1d1d1b;}.cls-6{fill:#fff;}</style></defs><g id="Capa_2" data-name="Capa 2"><g id="Capa_1-2" data-name="Capa 1"><circle class="cls-1" cx="97.95" cy="87.48" r="54.44"/><circle class="cls-2" cx="158.16" cy="116.98" r="49.65"/><circle class="cls-3" cx="87.85" cy="165.53" r="67.63"/><ellipse class="cls-3" cx="156.37" cy="122.1" rx="47.86" ry="50.16"/><circle class="cls-4" cx="124.79" cy="154.69" r="75.4"/><circle class="cls-5" cx="104.87" cy="145" r="75.18"/><circle class="cls-3" cx="166.01" cy="48.05" r="6.31"/><circle class="cls-3" cx="12.15" cy="93.32" r="12.15"/><circle class="cls-2" cx="81.21" cy="254.49" r="6.31"/><circle class="cls-1" cx="159.69" cy="251.76" r="6.31"/><circle class="cls-4" cx="149.85" cy="14.39" r="14.39"/><path class="cls-6" d="M99.22,142.12A2.86,2.86,0,0,0,96.07,145a3.1,3.1,0,1,0,6.19.14A3,3,0,0,0,99.22,142.12Z"/><path class="cls-6" d="M128.56,119.65a3.46,3.46,0,0,1-2-3.72c.1-1.77,1.55-1.47,2.51-1.93a11.49,11.49,0,0,1,1.48-.41l14.29-4.11a1.13,1.13,0,0,0-1.08-.66c-9.6-1.32-19.18-2.7-28.79-3.91-4-.51-8-1.57-12-1Q91.76,105.45,80.54,107l-15.69,2.21a81.79,81.79,0,0,0,9.71,3,2.08,2.08,0,0,1,1.8,2.22c.15,1.77-.74,3.19-1,4.8,0,1.76-.06,3.52,0,5.28,0,.74.39,1.36,1.17,1.31s1.53-.35,1.49-1.29c-.1-2.1.43-4.23-.33-6.29h0a4,4,0,0,1-.64-4.7c.51-1.05,2.07.19,3.17.29,2.5.22,3.57,1.44,3.21,4a30.07,30.07,0,0,0,0,4.84,3.14,3.14,0,0,1-.91,2.37,23.1,23.1,0,0,0-5.86,12.33,34.53,34.53,0,0,1-1.51,7.28c-1.69,4.38-3.15,8.85-4.72,13.28C69,162,69,162,73.27,162c5.06,0,5.06,0,5.26,5.09a9.79,9.79,0,0,0,9.83,9.56,30.25,30.25,0,0,0,3.3,0c1.4-.12,2,.33,1.92,1.83-.11,1.9.07,3.83,0,5.73-.11,1.7.59,2.1,2.18,2.09q18.32-.08,36.63,0c1.63,0,2.15-.48,2.14-2.13-.08-7.57,0-15.13,0-22.7a4.35,4.35,0,0,1,1.07-3c6.33-7.84,7.84-16.54,4.29-26A24,24,0,0,0,128.56,119.65ZM81.42,145.13a3,3,0,0,1,3-3.18,3.47,3.47,0,0,1,3.26,3.26,3.74,3.74,0,0,1-3.22,3.12A3.22,3.22,0,0,1,81.42,145.13Zm52.41,12.69a4,4,0,0,0-1.08,3c.05,3.6,0,7.2,0,10.79s0,7.34,0,11c0,1.32-.21,2-1.78,2q-9.81-.12-19.62,0c-1.36,0-1.88-.47-1.88-1.74,0-2.06-.13-4.12,0-6.16.09-1.44-.42-1.78-1.73-1.74-2,.07-4,.06-6-.05a7.7,7.7,0,0,1-7.2-6.57,35.71,35.71,0,0,1-.19-6.37c0-1.21-.37-1.73-1.64-1.67-1.84.07-3.68-.05-5.51,0-1.38.06-1.62-.35-1.16-1.62,1.74-4.75,3.27-9.57,5.11-14.28.88-2.26.84-4.59,1.26-6.88,2.2-12.18,12.86-20.33,25.68-19.52,11.59.72,21.21,10.82,21.7,22.67A22.9,22.9,0,0,1,133.83,157.82Z"/><path class="cls-6" d="M128.51,127c-2.35-2.53-8.17-4.42-11.48-3.56a3.89,3.89,0,0,1-1.7.15c-4.5-.8-7.5,2.25-10.86,4.33-.27.16-.39.61-.53.94a3.51,3.51,0,0,1-1.25,1.48,5.54,5.54,0,0,0-1.62,7c1.16,2.18,4,3,6.7,2.32,2.31-.55,4.78,1,7.13-.27.08,0,.32.28.52.37,3.84,1.65,4.88,4.77,4.47,8.62-.2,1.93.13,3.3,2.46,2.6,1.69.33,2.72-.06,3.14-1.86a5.1,5.1,0,0,1,2.2-3.2,10.93,10.93,0,0,0,4.62-5.58c1.15-2.85.82-9.1-1.26-11.38C130.33,128.24,129.23,127.8,128.51,127Z"/></g></g></svg>