<svg xmlns="http://www.w3.org/2000/svg" viewBox="0 0 206.36 178.61"><defs><style>.cls-1{fill:#1d1d1b;}</style></defs><g id="Capa_2" data-name="Capa 2"><g id="Capa_1-2" data-name="Capa 1"><path d="M66.88,90.77c-1.11-5.08-3.17-8.23-7.61-8.17s-6.59,3-7.13,7.37H39.06c2-9.1,3.12-18.15,6-26.63,2.1-6.19,6.45-11.62,9.79-17.39.73-1.27,1.94-2.54,2-3.85.25-5.59.22-11.2.1-16.81A3.19,3.19,0,0,0,55.15,23c-3.87-1.25-7.84-2.25-12.4-3.52.4,4.15-1.55,7.93,1.61,11.55.92,1.05.54,3.33.58,5.05A36.13,36.13,0,0,1,44.11,46V35.7h-.73V48.81c-1.73-1.38-3.48-2.1-3.52-2.9-.24-4.83-1.23-10.1.31-14.4A37.26,37.26,0,0,0,41.89,22c.21-2.16-.72-3-2.77-3.57-6.49-1.7-12.93-3.61-19.39-5.47-.79-.23-1.54-.61-3.34-1.33,14.71-2.09,28.33-4,42-5.94S85.4,1.48,99,.22c6.95-.65,14.12.26,21.1,1.14,19.51,2.45,39,5.25,58.45,7.94A56.47,56.47,0,0,1,190,11.87c-4.38,1.35-8.73,2.77-13.13,4.05-7.53,2.18-15.1,4.19-22.59,6.49-1.21.37-2.95,1.92-2.91,2.87.1,2.57-1.64,5.63,2,7.58,15.53,8.4,25.69,21.08,29.19,38.52,1,5.18.85,10.63.94,16,0,1-1.36,2-2.09,3l-.77-.61c-.39-5.53-.39-11.12-1.23-16.59-4.46-28.92-34.74-48.77-63.15-41.58C92.82,37.49,77.75,55.68,75.94,79.9c-.22,2.93-.75,6.19-2.31,8.52C72.64,89.9,69.5,89.94,66.88,90.77Z"/><path d="M136.27,90c-.3-7.29-5.78-9.62-10.41-12.67a2.75,2.75,0,0,0-1.72-.1c-.46.08-.88.62-1.33.63-7.09,0-14.26.66-21.24-.23-4.14-.54-6.69-4.53-7.3-9s1.06-8.22,4.6-11.17a14.4,14.4,0,0,0,3.21-3.83,12.24,12.24,0,0,1,8.68-6.4,10.59,10.59,0,0,0,4.18-2c3.47-2.66,7.1-3.91,11.47-2.45a7.33,7.33,0,0,0,3.48-.24c1.46-.28,3.22-1.47,4.25-1,6.91,3.2,16.17.91,21.06,8.9a5.41,5.41,0,0,0,2.1,1.44,11.47,11.47,0,0,1,6.37,11,11.73,11.73,0,0,0,.83,4.25c1.61,4.13,1.44,8-1.05,11.73a8.6,8.6,0,0,0-1,1.58c-3.6,9-4.56,9.62-14.24,9.58C144.41,90,140.57,90,136.27,90Z"/><path d="M79.41,158.07c-3.92,0-7.37,0-10.81,0-13.31-.12-22.24-9.14-22.15-22.35,0-2.84,0-5.68,0-9.17H81.12c0,2.91,0,5.57,0,8.23,0,13,7.06,20.1,20.06,20.14h12.53v20.32c1.71.09,2.81.2,3.91.21,14.32,0,28.65-.08,43,.12,3.43.05,4.1-1.11,4.07-4.28-.16-14.69-.07-29.38-.07-44.3,1.84-.44,3.33-1,3.32,1.73q-.06,24.48-.13,48.95c0,.22-.19.44-.42,1h-88Z"/><path d="M97.74,89.84H84.89c0-4,2.46-6.82,6.06-7.08S97.4,85.28,97.74,89.84Z"/><path class="cls-1" d="M10.84,104.57a7.59,7.59,0,0,0-.64-1.66c-.32-.54-.52-.68-1.62-.68h-2V112c0,1.56.16,1.78,2.06,1.9v.56H2.82v-.56c1.86-.12,2-.32,2-1.9v-9.74H3c-1.1,0-1.42.12-1.76.72a9.14,9.14,0,0,0-.66,1.62H0c.12-1.22.24-2.48.3-3.6H.76c.3.48.52.46,1.08.46H9.76a1,1,0,0,0,1-.46h.48c0,.94.08,2.38.18,3.54Z"/><path class="cls-1" d="M19.84,101.15a6.43,6.43,0,0,1,6.48,6.6c0,4.3-2.92,7-6.6,7a6.51,6.51,0,0,1-6.64-6.68A6.67,6.67,0,0,1,19.84,101.15Zm-.4.74c-2.24,0-4.28,1.88-4.28,5.62S17.2,114,20,114c2.42,0,4.24-1.8,4.24-5.66C24.28,104.11,22.06,101.89,19.44,101.89Z"/><path class="cls-1" d="M38.7,104.57a7.59,7.59,0,0,0-.64-1.66c-.32-.54-.52-.68-1.62-.68h-2V112c0,1.56.16,1.78,2.06,1.9v.56H30.68v-.56c1.86-.12,2-.32,2-1.9v-9.74H30.88c-1.1,0-1.42.12-1.76.72a9.14,9.14,0,0,0-.66,1.62h-.6c.12-1.22.24-2.48.3-3.6h.46c.3.48.52.46,1.08.46h7.92a1,1,0,0,0,1-.46h.48c0,.94.08,2.38.18,3.54Z"/><path class="cls-1" d="M54.86,102c-1.66.16-1.82.26-1.82,1.94v8c0,1.68.18,1.74,1.82,1.92v.56H49.5v-.56c1.66-.2,1.82-.24,1.82-1.92v-4H44.48v4c0,1.66.16,1.72,1.8,1.92v.56H40.94v-.56c1.62-.18,1.8-.24,1.8-1.92v-8c0-1.68-.18-1.78-1.8-1.94v-.56h5.34V102c-1.6.14-1.8.28-1.8,1.94v3.18h6.84v-3.18c0-1.66-.22-1.8-1.82-1.94v-.56h5.36Z"/><path class="cls-1" d="M63.94,114.43v-.56c1.3-.16,1.46-.36,1.18-1.12s-.66-1.78-1.08-3H59.72c-.32.9-.62,1.68-.9,2.5-.44,1.3-.16,1.46,1.48,1.66v.56H55.68v-.56c1.26-.16,1.58-.3,2.28-2.1l4.14-10.5.64-.12c1.26,3.42,2.64,7.2,3.9,10.66.64,1.74.82,1.9,2.24,2.06v.56Zm-2-10.66c-.64,1.72-1.32,3.54-1.92,5.12h3.74Z"/><path class="cls-1" d="M79.72,111.11c-.12.62-.72,2.7-.92,3.32H69.5v-.56c1.82-.18,2-.28,2-2V104c0-1.7-.2-1.8-1.8-2v-.56H75V102c-1.6.16-1.82.24-1.82,2v8.14c0,1.22.16,1.5,1.3,1.52l1.58,0c1,0,1.32-.12,1.78-.62A6.77,6.77,0,0,0,79.1,111Z"/><path class="cls-1" d="M91.08,111.11c-.12.62-.72,2.7-.92,3.32h-9.3v-.56c1.82-.18,2-.28,2-2V104c0-1.7-.2-1.8-1.8-2v-.56H86.4V102c-1.6.16-1.82.24-1.82,2v8.14c0,1.22.16,1.5,1.3,1.52l1.58,0c1,0,1.32-.12,1.78-.62A6.77,6.77,0,0,0,90.46,111Z"/><path class="cls-1" d="M102.22,102c-1.4.16-1.64.38-2.44,1.66-.9,1.46-1.64,2.84-2.62,4.62a2.12,2.12,0,0,0-.3,1.18v2.46c0,1.66.18,1.78,2,2v.56H93.16v-.56c1.82-.24,2-.28,2-2v-2.58a2,2,0,0,0-.4-1.16c-.7-1.3-1.38-2.56-2.46-4.44-.78-1.36-1-1.6-2.34-1.74v-.56h4.92V102c-1.44.2-1.36.46-1,1.14.84,1.54,1.78,3.34,2.62,4.84.72-1.34,1.86-3.52,2.42-4.62s.4-1.2-1.18-1.36v-.56h4.52Z"/><path class="cls-1" d="M116.92,111.11c-.12.62-.72,2.7-.92,3.32h-9.3v-.56c1.82-.18,2-.28,2-2V104c0-1.7-.2-1.8-1.8-2v-.56h5.36V102c-1.6.16-1.82.24-1.82,2v8.14c0,1.22.16,1.5,1.3,1.52l1.58,0c1,0,1.32-.12,1.78-.62A6.77,6.77,0,0,0,116.3,111Z"/><path class="cls-1" d="M128.62,111.25c-.12.52-.66,2.58-.86,3.18H118v-.56c1.86-.14,2-.32,2-2V104c0-1.78-.22-1.88-1.72-2v-.56h6.12c1.88,0,2.66,0,2.9,0,0,.5.1,2,.18,3.06l-.6.1a6.66,6.66,0,0,0-.6-1.52c-.32-.66-.78-.8-2-.8h-1.9c-.62,0-.66.06-.66.64v4.42H124c1.5,0,1.6-.3,1.84-1.66h.62v4.12h-.62c-.26-1.44-.42-1.64-1.86-1.64h-2.2v4c0,1.4.44,1.52,1.44,1.54h1.86c1.22,0,1.42-.18,1.86-.7a8.58,8.58,0,0,0,1.08-1.84Z"/><path class="cls-1" d="M136.76,114.43v-.56c1.3-.16,1.46-.36,1.18-1.12s-.66-1.78-1.08-3h-4.32c-.32.9-.62,1.68-.9,2.5-.44,1.3-.16,1.46,1.48,1.66v.56H128.5v-.56c1.26-.16,1.58-.3,2.28-2.1l4.14-10.5.64-.12c1.26,3.42,2.64,7.2,3.9,10.66.64,1.74.82,1.9,2.24,2.06v.56Zm-2-10.66c-.64,1.72-1.32,3.54-1.92,5.12h3.74Z"/><path class="cls-1" d="M154.36,114.59c-.26,0-.48,0-.74,0a3.55,3.55,0,0,1-3.12-1.72c-.74-1-1.46-2.28-2.1-3.3-.4-.64-.66-.76-1.68-.76H146v3.14c0,1.7.22,1.8,1.82,2v.56H142.5v-.56c1.66-.18,1.8-.26,1.8-2v-8c0-1.7-.22-1.76-1.8-1.94v-.56h5.1a5.65,5.65,0,0,1,3.2.68,3,3,0,0,1,1.36,2.64,3.71,3.71,0,0,1-2.58,3.44c.36.62,1.22,2,1.82,2.86a18.36,18.36,0,0,0,1.58,2.06,2.88,2.88,0,0,0,1.46.92Zm-7.38-6.5a3.22,3.22,0,0,0,2.2-.58,2.81,2.81,0,0,0,1.1-2.46,2.69,2.69,0,0,0-3-2.92,1.83,1.83,0,0,0-1.06.2c-.18.14-.24.34-.24.86v4.9Z"/><path class="cls-1" d="M169,102c-1.28.14-1.7.34-1.76,1.26,0,.64-.06,1.48-.06,3.34v8h-.76l-8.56-10.46v5c0,1.8.06,2.7.1,3.28,0,1,.54,1.32,2,1.44v.56H155v-.56c1.24-.1,1.72-.4,1.8-1.38.06-.64.1-1.54.1-3.36V104a1.74,1.74,0,0,0-.4-1.32c-.38-.5-.8-.62-1.78-.72v-.56h3l8.48,10.06v-4.9c0-1.86,0-2.72-.1-3.32-.06-.9-.52-1.18-2.12-1.28v-.56H169Z"/><path class="cls-1" d="M170.56,114.43v-.56c1.64-.18,1.8-.26,1.8-2V104c0-1.72-.16-1.8-1.8-2v-.56h5.36V102c-1.66.18-1.82.26-1.82,2v7.94c0,1.72.16,1.78,1.82,2v.56Z"/><path class="cls-1" d="M191.76,102c-1.28.14-1.7.34-1.76,1.26,0,.64-.06,1.48-.06,3.34v8h-.76l-8.56-10.46v5c0,1.8.06,2.7.1,3.28,0,1,.54,1.32,2,1.44v.56h-4.86v-.56c1.24-.1,1.72-.4,1.8-1.38.06-.64.1-1.54.1-3.36V104a1.74,1.74,0,0,0-.4-1.32c-.38-.5-.8-.62-1.78-.72v-.56h3L189,111.49v-4.9c0-1.86,0-2.72-.1-3.32-.06-.9-.52-1.18-2.12-1.28v-.56h4.94Z"/><path class="cls-1" d="M206.36,109c-1.24.16-1.32.28-1.32,1.46v1.68a11,11,0,0,0,.12,1.9,20.37,20.37,0,0,1-4.54.72c-4.54,0-7.3-2.82-7.3-6.84,0-4.22,3.44-6.74,7.44-6.74a20.47,20.47,0,0,1,4.16.5c0,.74.14,2,.3,3.22l-.6.12c-.48-1.7-1.06-2.42-2.32-2.84a6.74,6.74,0,0,0-1.86-.26c-3.06,0-5,2.1-5,5.76,0,3.18,1.64,6.34,5.52,6.34a4,4,0,0,0,1.7-.34,1.19,1.19,0,0,0,.68-1.28v-1.64c0-1.46-.16-1.62-2.08-1.76v-.58h5.14Z"/></g></g></svg>