<svg xmlns="http://www.w3.org/2000/svg" viewBox="0 0 266.99 296.54"><defs><style>.cls-1{fill:#264092;}.cls-2{fill:#b4c9e9;}.cls-3{fill:#2b4c9a;}.cls-4{fill:#546cb1;}.cls-5{fill:#1d1d1b;}.cls-6{fill:#fff;}</style></defs><g id="Capa_2" data-name="Capa 2"><g id="Capa_1-2" data-name="Capa 1"><path class="cls-1" d="M14,283.39a10.52,10.52,0,0,0-.83-2.15c-.41-.7-.67-.88-2.1-.88H8.52V293c0,2,.2,2.3,2.66,2.45v.73H3.65v-.73c2.41-.15,2.61-.41,2.61-2.45V280.36H3.91c-1.43,0-1.84.16-2.28.93a11.48,11.48,0,0,0-.85,2.1H0c.16-1.58.31-3.21.39-4.66H1c.39.62.68.6,1.4.6H12.63a1.3,1.3,0,0,0,1.32-.6h.62c0,1.22.1,3.08.23,4.58Z"/><path class="cls-1" d="M25.67,279a8.32,8.32,0,0,1,8.39,8.54c0,5.57-3.78,9-8.55,9a8.43,8.43,0,0,1-8.59-8.65A8.63,8.63,0,0,1,25.67,279Zm-.52,1c-2.9,0-5.54,2.43-5.54,7.27s2.64,8.36,6.32,8.36c3.13,0,5.49-2.33,5.49-7.32C31.42,282.79,28.54,279.92,25.15,279.92Z"/><path class="cls-1" d="M50.07,283.39a9.47,9.47,0,0,0-.83-2.15c-.41-.7-.67-.88-2.09-.88H44.56V293c0,2,.21,2.3,2.67,2.45v.73H39.69v-.73c2.41-.15,2.62-.41,2.62-2.45V280.36H40c-1.42,0-1.84.16-2.28.93a12.25,12.25,0,0,0-.85,2.1H36c.16-1.58.31-3.21.39-4.66H37c.39.62.67.6,1.4.6H48.67a1.29,1.29,0,0,0,1.32-.6h.63c0,1.22.1,3.08.23,4.58Z"/><path class="cls-1" d="M71,280.05c-2.15.21-2.35.34-2.35,2.51v10.38c0,2.17.23,2.25,2.35,2.48v.73H64v-.73c2.15-.25,2.36-.31,2.36-2.48v-5.18H57.55v5.18c0,2.15.21,2.23,2.33,2.48v.73H53v-.73c2.09-.23,2.33-.31,2.33-2.48V282.56c0-2.17-.24-2.3-2.33-2.51v-.72h6.91v.72c-2.07.18-2.33.36-2.33,2.51v4.12H66.4v-4.12c0-2.15-.28-2.33-2.36-2.51v-.72H71Z"/><path class="cls-1" d="M82.73,296.15v-.73c1.68-.2,1.89-.46,1.52-1.44s-.85-2.31-1.39-3.94H77.27c-.42,1.17-.81,2.18-1.17,3.24-.57,1.68-.21,1.89,1.92,2.14v.73H72v-.73c1.63-.2,2-.38,2.95-2.71l5.36-13.59.82-.16c1.63,4.43,3.42,9.32,5,13.8.83,2.25,1.06,2.46,2.9,2.66v.73Zm-2.59-13.8c-.83,2.23-1.71,4.59-2.49,6.63h4.84Z"/><path class="cls-1" d="M103.14,291.85c-.15.8-.93,3.5-1.19,4.3h-12v-.73c2.35-.23,2.56-.36,2.56-2.56V282.59c0-2.2-.26-2.33-2.33-2.54v-.72h6.94v.72c-2.07.21-2.36.31-2.36,2.54v10.53c0,1.58.21,1.94,1.68,2l2,0c1.32,0,1.71-.15,2.3-.8a8.77,8.77,0,0,0,1.58-2.66Z"/><path class="cls-1" d="M117.84,291.85c-.15.8-.93,3.5-1.19,4.3h-12v-.73c2.35-.23,2.56-.36,2.56-2.56V282.59c0-2.2-.26-2.33-2.33-2.54v-.72h6.93v.72c-2.07.21-2.35.31-2.35,2.54v10.53c0,1.58.21,1.94,1.68,2l2,0c1.32,0,1.7-.15,2.3-.8a8.77,8.77,0,0,0,1.58-2.66Z"/><path class="cls-1" d="M132.25,280.05c-1.81.21-2.12.49-3.15,2.15-1.17,1.89-2.13,3.67-3.39,6a2.72,2.72,0,0,0-.39,1.52v3.19c0,2.15.23,2.3,2.64,2.53v.73h-7.43v-.73c2.36-.31,2.54-.36,2.54-2.53v-3.34a2.68,2.68,0,0,0-.52-1.5c-.91-1.68-1.79-3.31-3.18-5.75-1-1.76-1.27-2.07-3-2.25v-.72h6.36v.72c-1.86.26-1.76.6-1.29,1.48,1.09,2,2.3,4.32,3.39,6.26.93-1.73,2.41-4.56,3.13-6s.52-1.55-1.52-1.76v-.72h5.84Z"/><path class="cls-2" d="M151.27,291.85c-.15.8-.93,3.5-1.19,4.3h-12v-.73c2.35-.23,2.56-.36,2.56-2.56V282.59c0-2.2-.26-2.33-2.33-2.54v-.72h6.94v.72c-2.07.21-2.36.31-2.36,2.54v10.53c0,1.58.21,1.94,1.68,2l2.05,0c1.32,0,1.71-.15,2.3-.8a8.77,8.77,0,0,0,1.58-2.66Z"/><path class="cls-2" d="M166.41,292c-.16.68-.85,3.34-1.11,4.12H152.72v-.73c2.41-.18,2.59-.41,2.59-2.53V282.66c0-2.3-.29-2.43-2.23-2.61v-.72H161c2.43,0,3.44,0,3.75-.06,0,.65.13,2.59.24,4l-.78.13a8.12,8.12,0,0,0-.78-2c-.41-.86-1-1-2.56-1h-2.46c-.8,0-.85.08-.85.83v5.72h2.87c1.94,0,2.07-.39,2.38-2.15h.8v5.33h-.8c-.33-1.86-.54-2.12-2.4-2.12h-2.85v5.15c0,1.81.57,2,1.86,2h2.41c1.58,0,1.84-.23,2.41-.9a11.37,11.37,0,0,0,1.39-2.38Z"/><path class="cls-2" d="M176.94,296.15v-.73c1.68-.2,1.89-.46,1.53-1.44s-.86-2.31-1.4-3.94h-5.59c-.41,1.17-.8,2.18-1.17,3.24-.56,1.68-.2,1.89,1.92,2.14v.73h-6v-.73c1.63-.2,2.05-.38,2.95-2.71l5.36-13.59.83-.16c1.63,4.43,3.41,9.32,5,13.8.83,2.25,1.07,2.46,2.9,2.66v.73Zm-2.59-13.8c-.83,2.23-1.71,4.59-2.48,6.63h4.84Z"/><path class="cls-2" d="M199.71,296.36c-.33,0-.62,0-1-.06a4.59,4.59,0,0,1-4-2.22c-1-1.32-1.89-2.95-2.72-4.27-.52-.83-.85-1-2.17-1h-.91v4.07c0,2.2.28,2.33,2.35,2.53v.73h-6.91v-.73c2.15-.23,2.33-.33,2.33-2.53V282.56c0-2.2-.28-2.28-2.33-2.51v-.72H191a7.33,7.33,0,0,1,4.15.88,3.85,3.85,0,0,1,1.75,3.41c0,2.23-1.42,3.63-3.33,4.45.46.81,1.58,2.54,2.35,3.7a23,23,0,0,0,2.05,2.67,3.64,3.64,0,0,0,1.89,1.19Zm-9.55-8.42a4.14,4.14,0,0,0,2.85-.75,3.62,3.62,0,0,0,1.42-3.18,3.49,3.49,0,0,0-3.83-3.78,2.4,2.4,0,0,0-1.37.26c-.23.18-.31.44-.31,1.11v6.34Z"/><path class="cls-2" d="M218.6,280.05c-1.65.18-2.2.44-2.28,1.63,0,.83-.07,1.92-.07,4.32v10.38h-1l-11.07-13.53v6.47c0,2.33.07,3.49.12,4.24.06,1.32.7,1.71,2.57,1.86v.73h-6.29v-.73c1.6-.13,2.22-.51,2.33-1.78.08-.83.13-2,.13-4.35v-6.6a2.25,2.25,0,0,0-.52-1.71c-.49-.64-1-.8-2.3-.93v-.72h3.88l11,13V286c0-2.4-.05-3.52-.13-4.29-.08-1.17-.67-1.53-2.74-1.66v-.72h6.39Z"/><path class="cls-2" d="M220.67,296.15v-.73c2.12-.23,2.33-.33,2.33-2.53V282.61c0-2.22-.21-2.33-2.33-2.56v-.72h6.93v.72c-2.14.23-2.35.34-2.35,2.56v10.28c0,2.22.21,2.3,2.35,2.53v.73Z"/><path class="cls-2" d="M248.1,280.05c-1.66.18-2.2.44-2.28,1.63,0,.83-.08,1.92-.08,4.32v10.38h-1l-11.08-13.53v6.47c0,2.33.08,3.49.13,4.24.05,1.32.7,1.71,2.57,1.86v.73h-6.29v-.73c1.6-.13,2.22-.51,2.33-1.78.07-.83.12-2,.12-4.35v-6.6A2.29,2.29,0,0,0,232,281c-.49-.64-1-.8-2.31-.93v-.72h3.89l11,13V286c0-2.4-.05-3.52-.13-4.29-.08-1.17-.67-1.53-2.74-1.66v-.72h6.39Z"/><path class="cls-2" d="M267,289.08c-1.61.21-1.71.37-1.71,1.89v2.18a14.17,14.17,0,0,0,.16,2.46,26.64,26.64,0,0,1-5.88.93c-5.88,0-9.45-3.65-9.45-8.85,0-5.47,4.45-8.73,9.63-8.73a26.3,26.3,0,0,1,5.38.65c.06,1,.19,2.54.39,4.17l-.77.15c-.62-2.2-1.37-3.13-3-3.67a8.53,8.53,0,0,0-2.4-.34c-4,0-6.53,2.72-6.53,7.46,0,4.11,2.13,8.2,7.15,8.2a5.16,5.16,0,0,0,2.2-.44,1.55,1.55,0,0,0,.88-1.66v-2.12c0-1.89-.21-2.1-2.69-2.28v-.75H267Z"/><circle class="cls-2" cx="121.07" cy="87.48" r="54.44"/><circle class="cls-3" cx="181.28" cy="116.98" r="49.65"/><circle class="cls-1" cx="110.97" cy="165.53" r="67.63"/><ellipse class="cls-1" cx="179.49" cy="122.1" rx="47.86" ry="50.16"/><circle class="cls-4" cx="147.92" cy="154.69" r="75.4"/><circle class="cls-5" cx="127.99" cy="145" r="75.18"/><circle class="cls-1" cx="189.13" cy="48.05" r="6.31"/><circle class="cls-1" cx="35.27" cy="93.32" r="12.15"/><circle class="cls-3" cx="104.33" cy="254.49" r="6.31"/><circle class="cls-2" cx="182.82" cy="251.76" r="6.31"/><circle class="cls-4" cx="172.97" cy="14.39" r="14.39"/><path class="cls-6" d="M122.34,142.12a2.86,2.86,0,0,0-3.15,2.89,3.1,3.1,0,1,0,6.2.14A3,3,0,0,0,122.34,142.12Z"/><path class="cls-6" d="M151.68,119.65a3.46,3.46,0,0,1-2-3.72c.1-1.77,1.55-1.47,2.51-1.93a12,12,0,0,1,1.48-.41L168,109.48a1.12,1.12,0,0,0-1.08-.66c-9.59-1.32-19.18-2.7-28.79-3.91-4-.51-7.95-1.57-12-1q-11.23,1.55-22.45,3.14L88,109.25a81.79,81.79,0,0,0,9.71,3,2.08,2.08,0,0,1,1.8,2.22c.16,1.77-.74,3.19-1,4.8,0,1.76-.06,3.52,0,5.28,0,.74.4,1.36,1.18,1.31s1.52-.35,1.48-1.29c-.09-2.1.43-4.23-.33-6.29h0a4,4,0,0,1-.63-4.7c.5-1.05,2.06.19,3.16.29,2.5.22,3.57,1.44,3.22,4a29,29,0,0,0,0,4.84,3.14,3.14,0,0,1-.91,2.37,23.1,23.1,0,0,0-5.86,12.33,34.53,34.53,0,0,1-1.51,7.28c-1.69,4.38-3.15,8.85-4.71,13.28-1.4,3.94-1.41,3.93,2.89,4,5.06,0,5.06,0,5.27,5.09a9.78,9.78,0,0,0,9.82,9.56,30.46,30.46,0,0,0,3.31,0c1.39-.12,2,.33,1.91,1.83-.11,1.9.07,3.83,0,5.73-.11,1.7.6,2.1,2.18,2.09q18.31-.08,36.63,0c1.63,0,2.16-.48,2.14-2.13-.08-7.57,0-15.13,0-22.7a4.35,4.35,0,0,1,1.07-3c6.34-7.84,7.84-16.54,4.29-26A23.9,23.9,0,0,0,151.68,119.65Zm-47.13,25.48a3,3,0,0,1,2.94-3.18,3.47,3.47,0,0,1,3.26,3.26,3.74,3.74,0,0,1-3.22,3.12A3.21,3.21,0,0,1,104.55,145.13ZM157,157.82a4,4,0,0,0-1.08,3c.06,3.6,0,7.2,0,10.79s0,7.34,0,11c0,1.32-.21,2-1.78,2q-9.81-.12-19.62,0c-1.36,0-1.88-.47-1.88-1.74,0-2.06-.13-4.12,0-6.16.1-1.44-.42-1.78-1.73-1.74-2,.07-4,.06-6-.05a7.7,7.7,0,0,1-7.2-6.57,35.71,35.71,0,0,1-.19-6.37c0-1.21-.37-1.73-1.64-1.67-1.83.07-3.68-.05-5.51,0-1.38.06-1.62-.35-1.15-1.62,1.73-4.75,3.27-9.57,5.1-14.28.88-2.26.85-4.59,1.26-6.88,2.2-12.18,12.86-20.33,25.68-19.52,11.59.72,21.21,10.82,21.71,22.67A23,23,0,0,1,157,157.82Z"/><path class="cls-6" d="M151.63,127c-2.34-2.53-8.17-4.42-11.47-3.56a4,4,0,0,1-1.71.15c-4.5-.8-7.49,2.25-10.86,4.33-.27.16-.39.61-.53.94a3.51,3.51,0,0,1-1.25,1.48,5.55,5.55,0,0,0-1.62,7c1.16,2.18,3.95,3,6.7,2.32,2.31-.55,4.78,1,7.13-.27.08,0,.32.28.52.37,3.85,1.65,4.88,4.77,4.47,8.62-.2,1.93.13,3.3,2.46,2.6,1.69.33,2.72-.06,3.14-1.86a5.16,5.16,0,0,1,2.21-3.2,10.91,10.91,0,0,0,4.61-5.58c1.15-2.85.82-9.1-1.25-11.38C153.46,128.24,152.36,127.8,151.63,127Z"/></g></g></svg>